<?xml version="1.0"?>
<svg xmlns="http://www.w3.org/2000/svg" xmlns:xlink="http://www.w3.org/1999/xlink" xmlns:svgjs="http://svgjs.com/svgjs" version="1.1" width="512" height="512" x="0" y="0" viewBox="0 0 64 64" style="enable-background:new 0 0 512 512" xml:space="preserve" class=""><g><path xmlns="http://www.w3.org/2000/svg" d="m61 39h-16c-.553 0-1 .447-1 1v7c0 1.654 1.346 3 3 3v1h-7.184c.112-.314.184-.648.184-1v-4.772c2.703-5.208 9.692-13.497 9.764-13.582.251-.297.308-.713.144-1.066s-.518-.58-.908-.58h-5c-.23 0-.454.08-.633.226l-4.01 3.28c-.339-.905-.804-1.746-1.377-2.506h.02v-8c0-9.374-7.626-17-17-17s-17 7.626-17 17v8h.019c-1.261 1.674-2.019 3.748-2.019 6v13c0 .462.114.895.301 1.287-.185.181-.301.433-.301.713 0 2.757 2.243 5 5 5h50c2.757 0 5-2.243 5-5 0-.553-.447-1-1-1h-2v-1c1.654 0 3-1.346 3-3v-7c0-.553-.447-1-1-1zm-16.643-7h2.521c-1.702 2.095-4.652 5.844-6.878 9.29v-4.29c0-.46-.042-.908-.102-1.352zm-38.357-9c0-8.271 6.729-15 15-15s15 6.729 15 15v6.019c-.909-.685-1.932-1.228-3.043-1.572-.217-2.584-1.908-4.857-4.374-5.753-1.108-.403-2.255-.706-3.423-.927.529-.794.84-1.744.84-2.767 0-2.757-2.243-5-5-5s-5 2.243-5 5c0 1.023.311 1.973.84 2.766-1.168.222-2.315.524-3.423.927-2.466.897-4.157 3.17-4.374 5.753-1.111.346-2.134.888-3.043 1.573zm12.836-.513c.657.319 1.385.513 2.164.513s1.507-.194 2.164-.513c1.627.174 3.22.535 4.735 1.085 1.548.563 2.66 1.9 2.99 3.473-.293-.026-.589-.045-.889-.045h-18c-.3 0-.596.019-.889.045.329-1.573 1.442-2.91 2.99-3.473 1.515-.55 3.108-.911 4.735-1.085zm-.836-4.487c0-1.654 1.346-3 3-3s3 1.346 3 3-1.346 3-3 3-3-1.346-3-3zm-14 19c0-4.411 3.589-8 8-8h18c4.411 0 8 3.589 8 8v13c0 .552-.448 1-1 1h-15.997l.239-.612c.463-1.185 1.48-2.054 2.723-2.326l-.004-.02c.064-.014.13-.013.192-.04 3.778-1.655 6.667-4.857 7.925-8.785l1.639-5.114c.132-.41-.015-.858-.362-1.112-.349-.254-.82-.256-1.171-.006-.432.308-4.251 3.049-5.428 4.327-2.626 2.852-3.607 7.312-3.896 8.991-.098.034-.19.079-.285.119.794-4.477-.829-9.113-4.425-12.107l-3.814-3.175c-.276-.231-.658-.293-.993-.167-.337.128-.579.426-.635.782l-.555 3.575c-.901 5.813 2.177 11.365 7.514 13.713-.106.199-.204.405-.287.618l-.525 1.339h-13.855c-.552 0-1-.448-1-1zm21.131 8.208c.454-1.879 1.376-4.675 3.095-6.543.464-.503 1.55-1.38 2.638-2.215l-.69 2.156c-.877 2.734-2.67 5.059-5.043 6.602zm-6.177 1.194c-3.556-2.283-5.496-6.441-4.825-10.768l.284-1.83 2.457 2.045c2.86 2.381 4.243 5.994 3.834 9.564l-2.863-6.534-1.832.803zm40.875 6.598c-.413 1.164-1.525 2-2.829 2h-50c-1.304 0-2.416-.836-2.829-2zm-10.829-2v-1h8v1zm11-4c0 .552-.448 1-1 1h-12c-.552 0-1-.448-1-1v-6h14z" fill="#fffcfc" data-original="#000000" style="" class=""/><path xmlns="http://www.w3.org/2000/svg" d="m49.529 13.972c.916-.573 2.171-1.356 2.171-2.972h-2c0 .459-.375.741-1.229 1.274-.916.572-2.171 1.355-2.171 2.972s1.254 2.399 2.17 2.972c.855.535 1.23.817 1.23 1.277 0 .461-.375.743-1.23 1.278-.916.572-2.17 1.356-2.17 2.975 0 1.617 1.254 2.401 2.17 2.974.855.535 1.23.817 1.23 1.278h2c0-1.617-1.254-2.401-2.17-2.974-.855-.535-1.23-.817-1.23-1.278s.375-.744 1.23-1.279c.916-.572 2.17-1.356 2.17-2.974s-1.255-2.4-2.171-2.973c-.854-.535-1.229-.816-1.229-1.276 0-.459.375-.741 1.229-1.274z" fill="#fffcfc" data-original="#000000" style="" class=""/><path xmlns="http://www.w3.org/2000/svg" d="m57.529 13.972c.916-.573 2.171-1.356 2.171-2.972h-2c0 .459-.375.741-1.229 1.274-.916.572-2.171 1.355-2.171 2.972s1.254 2.399 2.17 2.972c.855.535 1.23.817 1.23 1.277 0 .461-.375.743-1.23 1.278-.916.572-2.17 1.356-2.17 2.975 0 1.617 1.254 2.401 2.17 2.974.855.535 1.23.817 1.23 1.278h2c0-1.617-1.254-2.401-2.17-2.974-.855-.535-1.23-.817-1.23-1.278s.375-.744 1.23-1.279c.916-.572 2.17-1.356 2.17-2.974s-1.255-2.4-2.171-2.973c-.854-.535-1.229-.816-1.229-1.276 0-.459.375-.741 1.229-1.274z" fill="#fffcfc" data-original="#000000" style="" class=""/></g></svg>
